# MagicaVoxel @ Ephtracy

# group
o 

# material
mtllib BombCannon.mtl
usemtl palette

# normals
vn -1 0 0
vn 1 0 0
vn 0 0 1
vn 0 0 -1
vn 0 -1 0
vn 0 1 0

# texcoords
vt 0.728516 0.5
vt 0.966797 0.5
vt 0.990234 0.5
vt 0.994141 0.5

# verts
v -2 0 2
v -2 0 -1.9
v -2 3.1 2
v -2 3.1 -1.9
v -1.6 3.1 1.6
v -1.6 3.1 -1.4
v -1.6 4 1.6
v -1.6 4 -1.4
v -1.4 3.8 1.4
v -1.4 3.8 -1.3
v -1.4 3.9 1.4
v -1.4 3.9 -1.3
v 1.1 3.9 1.3
v 1.1 3.9 -1.1
v 1.1 4 1.3
v 1.1 4 -1.1
v 1.3 3 1.5
v 1.3 3 -1.3
v 1.3 3.1 1.5
v 1.3 3.1 -1.3
v 1.3 3.8 1.4
v 1.3 3.8 -1.3
v 1.3 3.9 1.5
v 1.3 3.9 1.4
v 1.8 0.1 1.9
v 1.8 0.1 -1.8
v 1.8 3 1.9
v 1.8 3 -1.8
v -1.9 0.1 1.9
v -1.9 0.1 -1.8
v -1.9 3 1.9
v -1.9 3 -1.8
v -1.5 3 1.5
v -1.5 3 -1.3
v -1.5 3.1 1.5
v -1.5 3.1 -1.3
v -1.5 3.9 1.5
v -1.5 3.9 -1.3
v -1.3 3.9 1.3
v -1.3 3.9 -1.1
v -1.3 4 1.3
v -1.3 4 -1.1
v 1.4 3.1 1.6
v 1.4 3.1 -1.4
v 1.4 4 1.6
v 1.4 4 -1.4
v 1.9 0 2
v 1.9 0 -1.9
v 1.9 3.1 2
v 1.9 3.1 -1.9
v -2 0 2
v -2 3.1 2
v 1.9 0 2
v 1.9 3.1 2
v -1.6 3.1 1.6
v -1.6 4 1.6
v 1.4 3.1 1.6
v 1.4 4 1.6
v -1.4 3.8 1.4
v -1.4 3.9 1.4
v 1.3 3.8 1.4
v 1.3 3.9 1.4
v -1.3 3.9 -1.1
v -1.3 4 -1.1
v 1.1 3.9 -1.1
v 1.1 4 -1.1
v -1.5 3 -1.3
v -1.5 3.1 -1.3
v -1.5 3.9 -1.3
v -1.4 3.8 -1.3
v -1.4 3.9 -1.3
v 1.3 3 -1.3
v 1.3 3.1 -1.3
v 1.3 3.8 -1.3
v -1.9 0.1 -1.8
v -1.9 3 -1.8
v 1.8 0.1 -1.8
v 1.8 3 -1.8
v -1.9 0.1 1.9
v -1.9 3 1.9
v 1.8 0.1 1.9
v 1.8 3 1.9
v -1.5 3 1.5
v -1.5 3.1 1.5
v -1.5 3.9 1.5
v 1.3 3 1.5
v 1.3 3.1 1.5
v 1.3 3.9 1.5
v -1.3 3.9 1.3
v -1.3 4 1.3
v 1.1 3.9 1.3
v 1.1 4 1.3
v -1.6 3.1 -1.4
v -1.6 4 -1.4
v 1.4 3.1 -1.4
v 1.4 4 -1.4
v -2 0 -1.9
v -2 3.1 -1.9
v 1.9 0 -1.9
v 1.9 3.1 -1.9
v -2 0 2
v 1.9 0 2
v -1.9 0 1.9
v 1.8 0 1.9
v -1.9 0 -1.8
v 1.8 0 -1.8
v -2 0 -1.9
v 1.9 0 -1.9
v -1.9 3 1.9
v 1.8 3 1.9
v -1.6 3 1.6
v 1.4 3 1.6
v -1.5 3 1.5
v 1.3 3 1.5
v -1.5 3 -1.3
v 1.3 3 -1.3
v -1.6 3 -1.4
v 1.4 3 -1.4
v -1.9 3 -1.8
v 1.8 3 -1.8
v -1.4 3.8 1.4
v 1.3 3.8 1.4
v -1.3 3.8 1.3
v 1.1 3.8 1.3
v 1.2 3.8 1.3
v -1.3 3.8 -1.1
v 1.1 3.8 -1.1
v -1.3 3.8 -1.2
v 1.2 3.8 -1.2
v -1.4 3.8 -1.3
v 1.3 3.8 -1.3
v -1.5 3.9 1.5
v 1.3 3.9 1.5
v -1.4 3.9 1.4
v 1.3 3.9 1.4
v -1.5 3.9 -1.3
v -1.4 3.9 -1.3
v -1.9 0.1 1.9
v 1.8 0.1 1.9
v -1.9 0.1 -1.8
v 1.8 0.1 -1.8
v -2 3.1 2
v 1.9 3.1 2
v -1.6 3.1 1.6
v 1.4 3.1 1.6
v -1.6 3.1 -1.4
v 1.4 3.1 -1.4
v -2 3.1 -1.9
v 1.9 3.1 -1.9
v -1.3 3.9 1.3
v 1.1 3.9 1.3
v -1.3 3.9 -1.1
v 1.1 3.9 -1.1
v -1.6 4 1.6
v 1.4 4 1.6
v -1.3 4 1.3
v 1.1 4 1.3
v -1.3 4 -1.1
v 1.1 4 -1.1
v -1.6 4 -1.4
v 1.4 4 -1.4

# faces
f 3/3/1 2/3/1 1/3/1
f 4/3/1 2/3/1 3/3/1
f 7/3/1 6/3/1 5/3/1
f 8/3/1 6/3/1 7/3/1
f 11/1/1 10/1/1 9/1/1
f 12/1/1 10/1/1 11/1/1
f 15/3/1 14/3/1 13/3/1
f 16/3/1 14/3/1 15/3/1
f 19/1/1 18/1/1 17/1/1
f 20/1/1 18/1/1 19/1/1
f 21/3/1 20/3/1 19/3/1
f 22/3/1 20/3/1 21/3/1
f 23/3/1 21/3/1 19/3/1
f 24/3/1 21/3/1 23/3/1
f 27/3/1 26/3/1 25/3/1
f 28/3/1 26/3/1 27/3/1
f 29/3/2 30/3/2 31/3/2
f 31/3/2 30/3/2 32/3/2
f 33/1/2 34/1/2 35/1/2
f 35/1/2 34/1/2 36/1/2
f 35/3/2 36/3/2 37/3/2
f 37/3/2 36/3/2 38/3/2
f 39/3/2 40/3/2 41/3/2
f 41/3/2 40/3/2 42/3/2
f 43/3/2 44/3/2 45/3/2
f 45/3/2 44/3/2 46/3/2
f 47/3/2 48/3/2 49/3/2
f 49/3/2 48/3/2 50/3/2
f 53/3/3 52/3/3 51/3/3
f 54/3/3 52/3/3 53/3/3
f 57/3/3 56/3/3 55/3/3
f 58/3/3 56/3/3 57/3/3
f 61/1/3 60/1/3 59/1/3
f 62/1/3 60/1/3 61/1/3
f 65/3/3 64/3/3 63/3/3
f 66/3/3 64/3/3 65/3/3
f 70/3/3 69/3/3 68/3/3
f 71/3/3 69/3/3 70/3/3
f 72/1/3 68/1/3 67/1/3
f 73/3/3 70/3/3 68/3/3
f 73/1/3 68/1/3 72/1/3
f 74/3/3 70/3/3 73/3/3
f 77/3/3 76/3/3 75/3/3
f 78/3/3 76/3/3 77/3/3
f 79/3/4 80/3/4 81/3/4
f 81/3/4 80/3/4 82/3/4
f 83/1/4 84/1/4 86/1/4
f 84/3/4 85/3/4 87/3/4
f 86/1/4 84/1/4 87/1/4
f 87/3/4 85/3/4 88/3/4
f 89/3/4 90/3/4 91/3/4
f 91/3/4 90/3/4 92/3/4
f 93/3/4 94/3/4 95/3/4
f 95/3/4 94/3/4 96/3/4
f 97/3/4 98/3/4 99/3/4
f 99/3/4 98/3/4 100/3/4
f 103/3/5 102/3/5 101/3/5
f 104/3/5 102/3/5 103/3/5
f 105/3/5 103/3/5 101/3/5
f 105/1/5 104/1/5 103/1/5
f 106/3/5 102/3/5 104/3/5
f 106/1/5 104/1/5 105/1/5
f 107/3/5 105/3/5 101/3/5
f 107/3/5 106/3/5 105/3/5
f 108/3/5 102/3/5 106/3/5
f 108/3/5 106/3/5 107/3/5
f 111/3/5 110/3/5 109/3/5
f 112/3/5 110/3/5 111/3/5
f 113/1/5 112/1/5 111/1/5
f 114/1/5 112/1/5 113/1/5
f 115/1/5 113/1/5 111/1/5
f 116/1/5 112/1/5 114/1/5
f 117/3/5 111/3/5 109/3/5
f 117/1/5 116/1/5 115/1/5
f 117/1/5 115/1/5 111/1/5
f 118/1/5 112/1/5 116/1/5
f 118/1/5 116/1/5 117/1/5
f 118/3/5 110/3/5 112/3/5
f 119/3/5 117/3/5 109/3/5
f 119/3/5 118/3/5 117/3/5
f 120/3/5 110/3/5 118/3/5
f 120/3/5 118/3/5 119/3/5
f 123/1/5 122/1/5 121/1/5
f 124/1/5 122/1/5 123/1/5
f 125/1/5 122/1/5 124/1/5
f 126/1/5 123/1/5 121/1/5
f 126/4/5 124/4/5 123/4/5
f 127/2/5 125/2/5 124/2/5
f 127/4/5 124/4/5 126/4/5
f 128/1/5 126/1/5 121/1/5
f 128/2/5 127/2/5 126/2/5
f 129/1/5 122/1/5 125/1/5
f 129/2/5 127/2/5 128/2/5
f 129/2/5 125/2/5 127/2/5
f 130/1/5 128/1/5 121/1/5
f 130/1/5 129/1/5 128/1/5
f 131/1/5 122/1/5 129/1/5
f 131/1/5 129/1/5 130/1/5
f 134/3/5 133/3/5 132/3/5
f 135/3/5 133/3/5 134/3/5
f 136/3/5 134/3/5 132/3/5
f 137/3/5 134/3/5 136/3/5
f 138/1/6 139/1/6 140/1/6
f 140/1/6 139/1/6 141/1/6
f 142/3/6 143/3/6 144/3/6
f 144/3/6 143/3/6 145/3/6
f 142/3/6 144/3/6 146/3/6
f 145/3/6 143/3/6 147/3/6
f 142/3/6 146/3/6 148/3/6
f 146/3/6 147/3/6 148/3/6
f 147/3/6 143/3/6 149/3/6
f 148/3/6 147/3/6 149/3/6
f 150/4/6 151/4/6 152/4/6
f 152/4/6 151/4/6 153/4/6
f 154/3/6 155/3/6 156/3/6
f 156/3/6 155/3/6 157/3/6
f 154/3/6 156/3/6 158/3/6
f 157/3/6 155/3/6 159/3/6
f 154/3/6 158/3/6 160/3/6
f 158/3/6 159/3/6 160/3/6
f 159/3/6 155/3/6 161/3/6
f 160/3/6 159/3/6 161/3/6
