# MagicaVoxel @ Ephtracy

# group
o Bomb

# material
mtllib BottleHz-0-Bomb.mtl
usemtl palette

# normals
vn -1 0 0
vn 1 0 0
vn 0 0 1
vn 0 0 -1
vn 0 -1 0
vn 0 1 0

# texcoords
vt 0.681641 0.5
vt 0.763672 0.5
vt 0.775391 0.5
vt 0.826172 0.5
vt 0.888672 0.5
vt 0.923828 0.5
vt 0.958984 0.5

# verts
v -0.8 0 0.8
v -0.8 0 -1
v -0.8 0.1 0.7
v -0.8 0.1 -0.9
v -0.8 2.5 0.7
v -0.8 2.5 -0.9
v -0.8 2.6 0.8
v -0.8 2.6 -1
v 1 0 0.8
v 1 0 -1
v 1 0.1 0.7
v 1 0.1 -0.9
v 1 2.5 0.7
v 1 2.5 -0.9
v 1 2.6 0.8
v 1 2.6 -1
v -0.8 0 0.8
v -0.8 2.6 0.8
v -0.7 0.1 0.8
v -0.7 2.5 0.8
v 0.9 0.1 0.8
v 0.9 2.5 0.8
v 1 0 0.8
v 1 2.6 0.8
v -0.8 0 -1
v -0.8 2.6 -1
v -0.7 0.1 -1
v -0.7 2.5 -1
v 0.9 0.1 -1
v 0.9 2.5 -1
v 1 0 -1
v 1 2.6 -1
v -0.8 0 0.8
v 1 0 0.8
v -0.7 0 0.7
v 0.9 0 0.7
v -0.7 0 -0.9
v 0.9 0 -0.9
v -0.8 0 -1
v 1 0 -1
v -0.8 2.6 0.8
v 1 2.6 0.8
v -0.7 2.6 0.7
v 0.9 2.6 0.7
v -0.7 2.6 -0.9
v 0.9 2.6 -0.9
v -0.8 2.6 -1
v 1 2.6 -1

# faces
f 3/7/1 2/7/1 1/7/1
f 4/7/1 2/7/1 3/7/1
f 5/7/1 3/7/1 1/7/1
f 5/3/1 4/3/1 3/3/1
f 6/7/1 2/7/1 4/7/1
f 6/3/1 4/3/1 5/3/1
f 7/7/1 5/7/1 1/7/1
f 7/7/1 6/7/1 5/7/1
f 8/7/1 2/7/1 6/7/1
f 8/7/1 6/7/1 7/7/1
f 9/7/2 10/7/2 11/7/2
f 11/7/2 10/7/2 12/7/2
f 9/7/2 11/7/2 13/7/2
f 11/5/2 12/5/2 13/5/2
f 12/7/2 10/7/2 14/7/2
f 13/5/2 12/5/2 14/5/2
f 9/7/2 13/7/2 15/7/2
f 13/7/2 14/7/2 15/7/2
f 14/7/2 10/7/2 16/7/2
f 15/7/2 14/7/2 16/7/2
f 19/7/3 18/7/3 17/7/3
f 20/7/3 18/7/3 19/7/3
f 21/7/3 19/7/3 17/7/3
f 21/1/3 20/1/3 19/1/3
f 22/7/3 18/7/3 20/7/3
f 22/1/3 20/1/3 21/1/3
f 23/7/3 21/7/3 17/7/3
f 23/7/3 22/7/3 21/7/3
f 24/7/3 18/7/3 22/7/3
f 24/7/3 22/7/3 23/7/3
f 25/7/4 26/7/4 27/7/4
f 27/7/4 26/7/4 28/7/4
f 25/7/4 27/7/4 29/7/4
f 27/2/4 28/2/4 29/2/4
f 28/7/4 26/7/4 30/7/4
f 29/2/4 28/2/4 30/2/4
f 25/7/4 29/7/4 31/7/4
f 29/7/4 30/7/4 31/7/4
f 30/7/4 26/7/4 32/7/4
f 31/7/4 30/7/4 32/7/4
f 35/7/5 34/7/5 33/7/5
f 36/7/5 34/7/5 35/7/5
f 37/7/5 35/7/5 33/7/5
f 37/4/5 36/4/5 35/4/5
f 38/7/5 34/7/5 36/7/5
f 38/4/5 36/4/5 37/4/5
f 39/7/5 37/7/5 33/7/5
f 39/7/5 38/7/5 37/7/5
f 40/7/5 34/7/5 38/7/5
f 40/7/5 38/7/5 39/7/5
f 41/7/6 42/7/6 43/7/6
f 43/7/6 42/7/6 44/7/6
f 41/7/6 43/7/6 45/7/6
f 43/6/6 44/6/6 45/6/6
f 44/7/6 42/7/6 46/7/6
f 45/6/6 44/6/6 46/6/6
f 41/7/6 45/7/6 47/7/6
f 45/7/6 46/7/6 47/7/6
f 46/7/6 42/7/6 48/7/6
f 47/7/6 46/7/6 48/7/6
