# MagicaVoxel @ Ephtracy

# group
o MagicalTower

# material
mtllib Healer-0-MagicalTower.mtl
usemtl palette

# normals
vn -1 0 0
vn 1 0 0
vn 0 0 1
vn 0 0 -1
vn 0 -1 0
vn 0 1 0

# texcoords
vt 0.306641 0.5
vt 0.716797 0.5
vt 0.990234 0.5

# verts
v -1.1 0 -2.38419e-07
v -1.1 0 -2
v -1.1 1.8 -2.38419e-07
v -1.1 1.8 -2
v -0.4 0.6 2
v -0.4 0.6 1.1
v -0.4 1.3 2
v -0.4 1.3 1.1
v -0.3 0.7 1.1
v -0.3 0.7 -2.38419e-07
v -0.3 1.2 1.1
v -0.3 1.2 -2.38419e-07
v 0.1 0.8 1.2
v 0.1 0.8 1.1
v 0.1 0.8 -2.38419e-07
v 0.1 0.8 -0.1
v 0.1 1.1 1.2
v 0.1 1.1 1.1
v 0.1 1.1 -2.38419e-07
v 0.1 1.1 -0.1
v 0.2 0.7 1.9
v 0.2 0.7 1.2
v 0.2 1.2 1.9
v 0.2 1.2 1.2
v 0.9 0.1 -0.1
v 0.9 0.1 -1.9
v 0.9 1.7 -0.1
v 0.9 1.7 -1.9
v -1 0.1 -0.1
v -1 0.1 -1.9
v -1 1.7 -0.1
v -1 1.7 -1.9
v -0.3 0.7 1.9
v -0.3 0.7 1.2
v -0.3 1.2 1.9
v -0.3 1.2 1.2
v -0.2 0.8 1.2
v -0.2 0.8 1.1
v -0.2 0.8 -2.38419e-07
v -0.2 0.8 -0.1
v -0.2 1.1 1.2
v -0.2 1.1 1.1
v -0.2 1.1 -2.38419e-07
v -0.2 1.1 -0.1
v 0.2 0.7 1.1
v 0.2 0.7 -2.38419e-07
v 0.2 1.2 1.1
v 0.2 1.2 -2.38419e-07
v 0.3 0.6 2
v 0.3 0.6 1.1
v 0.3 1.3 2
v 0.3 1.3 1.1
v 1 0 -2.38419e-07
v 1 0 -2
v 1 1.8 -2.38419e-07
v 1 1.8 -2
v -0.4 0.6 2
v -0.4 1.3 2
v 0.3 0.6 2
v 0.3 1.3 2
v -0.3 0.7 1.2
v -0.3 1.2 1.2
v -0.2 0.8 1.2
v -0.2 1.1 1.2
v 0.1 0.8 1.2
v 0.1 1.1 1.2
v 0.2 0.7 1.2
v 0.2 1.2 1.2
v -1.1 0 -2.38419e-07
v -1.1 1.8 -2.38419e-07
v -0.3 0.7 -2.38419e-07
v -0.3 1.2 -2.38419e-07
v 0.2 0.7 -2.38419e-07
v 0.2 1.2 -2.38419e-07
v 1 0 -2.38419e-07
v 1 1.8 -2.38419e-07
v -1 0.1 -1.9
v -1 1.7 -1.9
v 0.9 0.1 -1.9
v 0.9 1.7 -1.9
v -0.3 0.7 1.9
v -0.3 1.2 1.9
v 0.2 0.7 1.9
v 0.2 1.2 1.9
v -0.4 0.6 1.1
v -0.4 1.3 1.1
v -0.3 0.7 1.1
v -0.3 1.2 1.1
v 0.2 0.7 1.1
v 0.2 1.2 1.1
v 0.3 0.6 1.1
v 0.3 1.3 1.1
v -1 0.1 -0.1
v -1 1.7 -0.1
v -0.3 0.7 -0.1
v -0.3 1.2 -0.1
v -0.2 0.8 -0.1
v -0.2 1.1 -0.1
v 0.1 0.8 -0.1
v 0.1 1.1 -0.1
v 0.2 0.7 -0.1
v 0.2 1.2 -0.1
v 0.9 0.1 -0.1
v 0.9 1.7 -0.1
v -1.1 0 -2
v -1.1 1.8 -2
v 1 0 -2
v 1 1.8 -2
v -1.1 0 -2.38419e-07
v 1 0 -2.38419e-07
v -1.1 0 -2
v 1 0 -2
v -0.4 0.6 2
v 0.3 0.6 2
v -0.4 0.6 1.1
v 0.3 0.6 1.1
v -0.3 0.7 1.1
v 0.2 0.7 1.1
v -0.3 0.7 -2.38419e-07
v 0.2 0.7 -2.38419e-07
v -0.2 1.1 1.2
v 0.1 1.1 1.2
v -0.2 1.1 1.1
v 0.1 1.1 1.1
v -0.2 1.1 -2.38419e-07
v 0.1 1.1 -2.38419e-07
v -0.2 1.1 -0.1
v 0.1 1.1 -0.1
v -0.3 1.2 1.9
v 0.2 1.2 1.9
v -0.3 1.2 1.2
v 0.2 1.2 1.2
v -1 1.7 -0.1
v 0.9 1.7 -0.1
v -1 1.7 -1.9
v 0.9 1.7 -1.9
v -1 0.1 -0.1
v 0.9 0.1 -0.1
v -1 0.1 -1.9
v 0.9 0.1 -1.9
v -0.3 0.7 1.9
v 0.2 0.7 1.9
v -0.3 0.7 1.2
v 0.2 0.7 1.2
v -0.2 0.8 1.2
v 0.1 0.8 1.2
v -0.2 0.8 1.1
v 0.1 0.8 1.1
v -0.2 0.8 -2.38419e-07
v 0.1 0.8 -2.38419e-07
v -0.2 0.8 -0.1
v 0.1 0.8 -0.1
v -0.3 1.2 1.1
v 0.2 1.2 1.1
v -0.3 1.2 -2.38419e-07
v 0.2 1.2 -2.38419e-07
v -0.4 1.3 2
v 0.3 1.3 2
v -0.4 1.3 1.1
v 0.3 1.3 1.1
v -1.1 1.8 -2.38419e-07
v 1 1.8 -2.38419e-07
v -1.1 1.8 -2
v 1 1.8 -2

# faces
f 3/3/1 2/3/1 1/3/1
f 4/3/1 2/3/1 3/3/1
f 7/2/1 6/2/1 5/2/1
f 8/2/1 6/2/1 7/2/1
f 11/3/1 10/3/1 9/3/1
f 12/3/1 10/3/1 11/3/1
f 17/1/1 14/1/1 13/1/1
f 18/3/1 15/3/1 14/3/1
f 18/1/1 14/1/1 17/1/1
f 19/1/1 16/1/1 15/1/1
f 19/3/1 15/3/1 18/3/1
f 20/1/1 16/1/1 19/1/1
f 23/2/1 22/2/1 21/2/1
f 24/2/1 22/2/1 23/2/1
f 27/3/1 26/3/1 25/3/1
f 28/3/1 26/3/1 27/3/1
f 29/3/2 30/3/2 31/3/2
f 31/3/2 30/3/2 32/3/2
f 33/2/2 34/2/2 35/2/2
f 35/2/2 34/2/2 36/2/2
f 37/1/2 38/1/2 41/1/2
f 38/3/2 39/3/2 42/3/2
f 41/1/2 38/1/2 42/1/2
f 39/1/2 40/1/2 43/1/2
f 42/3/2 39/3/2 43/3/2
f 43/1/2 40/1/2 44/1/2
f 45/3/2 46/3/2 47/3/2
f 47/3/2 46/3/2 48/3/2
f 49/2/2 50/2/2 51/2/2
f 51/2/2 50/2/2 52/2/2
f 53/3/2 54/3/2 55/3/2
f 55/3/2 54/3/2 56/3/2
f 59/2/3 58/2/3 57/2/3
f 60/2/3 58/2/3 59/2/3
f 63/1/3 62/1/3 61/1/3
f 64/1/3 62/1/3 63/1/3
f 65/1/3 63/1/3 61/1/3
f 66/1/3 62/1/3 64/1/3
f 67/1/3 65/1/3 61/1/3
f 67/1/3 66/1/3 65/1/3
f 68/1/3 62/1/3 66/1/3
f 68/1/3 66/1/3 67/1/3
f 71/3/3 70/3/3 69/3/3
f 72/3/3 70/3/3 71/3/3
f 73/3/3 71/3/3 69/3/3
f 74/3/3 70/3/3 72/3/3
f 75/3/3 73/3/3 69/3/3
f 75/3/3 74/3/3 73/3/3
f 76/3/3 70/3/3 74/3/3
f 76/3/3 74/3/3 75/3/3
f 79/3/3 78/3/3 77/3/3
f 80/3/3 78/3/3 79/3/3
f 81/2/4 82/2/4 83/2/4
f 83/2/4 82/2/4 84/2/4
f 85/2/4 86/2/4 87/2/4
f 87/2/4 86/2/4 88/2/4
f 85/2/4 87/2/4 89/2/4
f 88/2/4 86/2/4 90/2/4
f 85/2/4 89/2/4 91/2/4
f 89/2/4 90/2/4 91/2/4
f 90/2/4 86/2/4 92/2/4
f 91/2/4 90/2/4 92/2/4
f 93/3/4 94/3/4 95/3/4
f 95/3/4 94/3/4 96/3/4
f 95/1/4 96/1/4 97/1/4
f 97/1/4 96/1/4 98/1/4
f 95/1/4 97/1/4 99/1/4
f 98/1/4 96/1/4 100/1/4
f 93/3/4 95/3/4 101/3/4
f 99/1/4 100/1/4 101/1/4
f 95/1/4 99/1/4 101/1/4
f 100/1/4 96/1/4 102/1/4
f 101/1/4 100/1/4 102/1/4
f 96/3/4 94/3/4 102/3/4
f 93/3/4 101/3/4 103/3/4
f 101/3/4 102/3/4 103/3/4
f 102/3/4 94/3/4 104/3/4
f 103/3/4 102/3/4 104/3/4
f 105/3/4 106/3/4 107/3/4
f 107/3/4 106/3/4 108/3/4
f 111/3/5 110/3/5 109/3/5
f 112/3/5 110/3/5 111/3/5
f 115/2/5 114/2/5 113/2/5
f 116/2/5 114/2/5 115/2/5
f 119/3/5 118/3/5 117/3/5
f 120/3/5 118/3/5 119/3/5
f 123/1/5 122/1/5 121/1/5
f 124/1/5 122/1/5 123/1/5
f 125/3/5 124/3/5 123/3/5
f 126/3/5 124/3/5 125/3/5
f 127/1/5 126/1/5 125/1/5
f 128/1/5 126/1/5 127/1/5
f 131/2/5 130/2/5 129/2/5
f 132/2/5 130/2/5 131/2/5
f 135/3/5 134/3/5 133/3/5
f 136/3/5 134/3/5 135/3/5
f 137/3/6 138/3/6 139/3/6
f 139/3/6 138/3/6 140/3/6
f 141/2/6 142/2/6 143/2/6
f 143/2/6 142/2/6 144/2/6
f 145/1/6 146/1/6 147/1/6
f 147/1/6 146/1/6 148/1/6
f 147/3/6 148/3/6 149/3/6
f 149/3/6 148/3/6 150/3/6
f 149/1/6 150/1/6 151/1/6
f 151/1/6 150/1/6 152/1/6
f 153/3/6 154/3/6 155/3/6
f 155/3/6 154/3/6 156/3/6
f 157/2/6 158/2/6 159/2/6
f 159/2/6 158/2/6 160/2/6
f 161/3/6 162/3/6 163/3/6
f 163/3/6 162/3/6 164/3/6
