# MagicaVoxel @ Ephtracy

# group
o 

# material
mtllib HotTower.mtl
usemtl palette

# normals
vn -1 0 0
vn 1 0 0
vn 0 0 1
vn 0 0 -1
vn 0 -1 0
vn 0 1 0

# texcoords
vt 0.0214844 0.5
vt 0.0917969 0.5
vt 0.728516 0.5
vt 0.841797 0.5
vt 0.857422 0.5
vt 0.994141 0.5

# verts
v -1 0 1
v -1 0 -1
v -1 1.9 1
v -1 1.9 -1
v -0.7 0 1.1
v -0.7 0 1
v -0.7 0.3 1.1
v -0.7 0.3 1
v -0.6 0.3 1.1
v -0.6 0.3 1
v -0.6 0.4 1.1
v -0.6 0.4 1
v -0.6 0.9 1.1
v -0.6 0.9 1
v -0.6 1.3 1.1
v -0.6 1.3 1
v -0.5 0.4 1.1
v -0.5 0.4 1
v -0.5 0.5 1.1
v -0.5 0.5 1
v -0.5 1.3 1.1
v -0.5 1.3 1
v -0.5 1.4 1.1
v -0.5 1.4 1
v -0.4 1.4 1.1
v -0.4 1.4 1
v -0.4 1.5 1.1
v -0.4 1.5 1
v -0.3 0.5 1.1
v -0.3 0.5 1
v -0.3 0.6 1.1
v -0.3 0.6 1
v 0.4 1.3 1.1
v 0.4 1.3 1
v 0.4 1.4 1.1
v 0.4 1.4 1
v 0.5 1 1.1
v 0.5 1 1
v 0.5 1.3 1.1
v 0.5 1.3 1
v -0.5 1 1.1
v -0.5 1 1
v -0.5 1.3 1.1
v -0.5 1.3 1
v -0.4 1.3 1.1
v -0.4 1.3 1
v -0.4 1.4 1.1
v -0.4 1.4 1
v 0.3 0.5 1.1
v 0.3 0.5 1
v 0.3 0.6 1.1
v 0.3 0.6 1
v 0.4 1.4 1.1
v 0.4 1.4 1
v 0.4 1.5 1.1
v 0.4 1.5 1
v 0.5 0.4 1.1
v 0.5 0.4 1
v 0.5 0.5 1.1
v 0.5 0.5 1
v 0.5 1.3 1.1
v 0.5 1.3 1
v 0.5 1.4 1.1
v 0.5 1.4 1
v 0.6 0.3 1.1
v 0.6 0.3 1
v 0.6 0.4 1.1
v 0.6 0.4 1
v 0.6 0.9 1.1
v 0.6 0.9 1
v 0.6 1.3 1.1
v 0.6 1.3 1
v 0.7 0 1.1
v 0.7 0 1
v 0.7 0.3 1.1
v 0.7 0.3 1
v 1 0 1
v 1 0 -1
v 1 1.9 1
v 1 1.9 -1
v -0.7 0 1.1
v -0.7 0.3 1.1
v -0.6 0 1.1
v -0.6 0.1 1.1
v -0.6 0.2 1.1
v -0.6 0.3 1.1
v -0.6 0.4 1.1
v -0.6 0.9 1.1
v -0.6 1.3 1.1
v -0.5 0 1.1
v -0.5 0.1 1.1
v -0.5 0.2 1.1
v -0.5 0.3 1.1
v -0.5 0.4 1.1
v -0.5 0.5 1.1
v -0.5 1 1.1
v -0.5 1.3 1.1
v -0.5 1.4 1.1
v -0.4 0 1.1
v -0.4 0.1 1.1
v -0.4 1.3 1.1
v -0.4 1.4 1.1
v -0.4 1.5 1.1
v -0.3 0 1.1
v -0.3 0.1 1.1
v -0.3 0.3 1.1
v -0.3 0.4 1.1
v -0.3 0.5 1.1
v -0.3 0.6 1.1
v -0.2 0.2 1.1
v -0.2 0.4 1.1
v -0.0999999 0 1.1
v -0.0999999 0.1 1.1
v -0.0999999 0.2 1.1
v 1.19209e-07 0.3 1.1
v 1.19209e-07 0.4 1.1
v 0.1 0 1.1
v 0.1 0.1 1.1
v 0.1 0.2 1.1
v 0.1 0.3 1.1
v 0.1 0.4 1.1
v 0.2 0 1.1
v 0.2 0.1 1.1
v 0.2 0.2 1.1
v 0.2 0.3 1.1
v 0.3 0 1.1
v 0.3 0.2 1.1
v 0.3 0.4 1.1
v 0.3 0.5 1.1
v 0.3 0.6 1.1
v 0.4 0 1.1
v 0.4 0.1 1.1
v 0.4 1.3 1.1
v 0.4 1.4 1.1
v 0.4 1.5 1.1
v 0.5 0.3 1.1
v 0.5 0.4 1.1
v 0.5 0.5 1.1
v 0.5 1 1.1
v 0.5 1.3 1.1
v 0.5 1.4 1.1
v 0.6 0 1.1
v 0.6 0.1 1.1
v 0.6 0.2 1.1
v 0.6 0.3 1.1
v 0.6 0.4 1.1
v 0.6 0.9 1.1
v 0.6 1.3 1.1
v 0.7 0 1.1
v 0.7 0.3 1.1
v -1 0 1
v -1 1.9 1
v -0.7 0 1
v -0.7 0.3 1
v -0.6 0.3 1
v -0.6 0.4 1
v -0.6 0.9 1
v -0.6 1.3 1
v -0.5 0.4 1
v -0.5 0.5 1
v -0.5 1 1
v -0.5 1.3 1
v -0.5 1.4 1
v -0.4 1.3 1
v -0.4 1.4 1
v -0.4 1.5 1
v -0.3 0.5 1
v -0.3 0.6 1
v 0.3 0.5 1
v 0.3 0.6 1
v 0.4 1.3 1
v 0.4 1.4 1
v 0.4 1.5 1
v 0.5 0.4 1
v 0.5 0.5 1
v 0.5 1 1
v 0.5 1.3 1
v 0.5 1.4 1
v 0.6 0.3 1
v 0.6 0.4 1
v 0.6 0.9 1
v 0.6 1.3 1
v 0.7 0 1
v 0.7 0.3 1
v 1 0 1
v 1 1.9 1
v -1 0 -1
v -1 1.9 -1
v 1 0 -1
v 1 1.9 -1
v -0.7 0 1.1
v -0.6 0 1.1
v -0.5 0 1.1
v -0.4 0 1.1
v -0.3 0 1.1
v -0.0999999 0 1.1
v 0.1 0 1.1
v 0.2 0 1.1
v 0.3 0 1.1
v 0.4 0 1.1
v 0.6 0 1.1
v 0.7 0 1.1
v -1 0 1
v -0.7 0 1
v -0.6 0 1
v -0.5 0 1
v -0.4 0 1
v -0.3 0 1
v -0.0999999 0 1
v 0.1 0 1
v 0.2 0 1
v 0.3 0 1
v 0.4 0 1
v 0.6 0 1
v 0.7 0 1
v 1 0 1
v -0.9 0 0.8
v -0.7 0 0.8
v 0.7 0 0.8
v 0.9 0 0.8
v 0.5 0 0.6
v 0.6 0 0.6
v 0.5 0 0.5
v 0.6 0 0.5
v -0.9 0 -0.9
v 0.9 0 -0.9
v -1 0 -1
v 1 0 -1
v -0.6 0.9 1.1
v 0.6 0.9 1.1
v -0.6 0.9 1
v 0.6 0.9 1
v -0.5 1.3 1.1
v -0.4 1.3 1.1
v 0.4 1.3 1.1
v 0.5 1.3 1.1
v -0.5 1.3 1
v -0.4 1.3 1
v 0.4 1.3 1
v 0.5 1.3 1
v -0.4 1.4 1.1
v 0.4 1.4 1.1
v -0.4 1.4 1
v 0.4 1.4 1
v -0.7 0.3 1.1
v -0.6 0.3 1.1
v 0.6 0.3 1.1
v 0.7 0.3 1.1
v -0.7 0.3 1
v -0.6 0.3 1
v 0.6 0.3 1
v 0.7 0.3 1
v -0.6 0.4 1.1
v -0.5 0.4 1.1
v 0.5 0.4 1.1
v 0.6 0.4 1.1
v -0.6 0.4 1
v -0.5 0.4 1
v 0.5 0.4 1
v 0.6 0.4 1
v -0.5 0.5 1.1
v -0.3 0.5 1.1
v 0.3 0.5 1.1
v 0.5 0.5 1.1
v -0.5 0.5 1
v -0.3 0.5 1
v 0.3 0.5 1
v 0.5 0.5 1
v -0.3 0.6 1.1
v 0.3 0.6 1.1
v -0.3 0.6 1
v 0.3 0.6 1
v -0.5 1 1.1
v 0.5 1 1.1
v -0.5 1 1
v 0.5 1 1
v -0.6 1.3 1.1
v -0.5 1.3 1.1
v 0.5 1.3 1.1
v 0.6 1.3 1.1
v -0.6 1.3 1
v -0.5 1.3 1
v 0.5 1.3 1
v 0.6 1.3 1
v -0.5 1.4 1.1
v -0.4 1.4 1.1
v 0.4 1.4 1.1
v 0.5 1.4 1.1
v -0.5 1.4 1
v -0.4 1.4 1
v 0.4 1.4 1
v 0.5 1.4 1
v -0.4 1.5 1.1
v 0.4 1.5 1.1
v -0.4 1.5 1
v 0.4 1.5 1
v -1 1.9 1
v 1 1.9 1
v -1 1.9 -1
v 1 1.9 -1

# faces
f 3/5/1 2/5/1 1/5/1
f 4/5/1 2/5/1 3/5/1
f 7/6/1 6/6/1 5/6/1
f 8/6/1 6/6/1 7/6/1
f 11/6/1 10/6/1 9/6/1
f 12/6/1 10/6/1 11/6/1
f 15/6/1 14/6/1 13/6/1
f 16/6/1 14/6/1 15/6/1
f 19/6/1 18/6/1 17/6/1
f 20/6/1 18/6/1 19/6/1
f 23/6/1 22/6/1 21/6/1
f 24/6/1 22/6/1 23/6/1
f 27/6/1 26/6/1 25/6/1
f 28/6/1 26/6/1 27/6/1
f 31/6/1 30/6/1 29/6/1
f 32/6/1 30/6/1 31/6/1
f 35/6/1 34/6/1 33/6/1
f 36/6/1 34/6/1 35/6/1
f 39/6/1 38/6/1 37/6/1
f 40/6/1 38/6/1 39/6/1
f 41/6/2 42/6/2 43/6/2
f 43/6/2 42/6/2 44/6/2
f 45/6/2 46/6/2 47/6/2
f 47/6/2 46/6/2 48/6/2
f 49/6/2 50/6/2 51/6/2
f 51/6/2 50/6/2 52/6/2
f 53/6/2 54/6/2 55/6/2
f 55/6/2 54/6/2 56/6/2
f 57/6/2 58/6/2 59/6/2
f 59/6/2 58/6/2 60/6/2
f 61/6/2 62/6/2 63/6/2
f 63/6/2 62/6/2 64/6/2
f 65/6/2 66/6/2 67/6/2
f 67/6/2 66/6/2 68/6/2
f 69/6/2 70/6/2 71/6/2
f 71/6/2 70/6/2 72/6/2
f 73/6/2 74/6/2 75/6/2
f 75/6/2 74/6/2 76/6/2
f 77/5/2 78/5/2 79/5/2
f 79/5/2 78/5/2 80/5/2
f 83/6/3 82/6/3 81/6/3
f 84/6/3 82/6/3 83/6/3
f 85/6/3 82/6/3 84/6/3
f 86/6/3 82/6/3 85/6/3
f 90/4/3 84/4/3 83/4/3
f 91/2/3 85/2/3 84/2/3
f 91/4/3 84/4/3 90/4/3
f 92/4/3 86/4/3 85/4/3
f 92/2/3 85/2/3 91/2/3
f 93/6/3 87/6/3 86/6/3
f 93/4/3 86/4/3 92/4/3
f 94/6/3 87/6/3 93/6/3
f 96/6/3 89/6/3 88/6/3
f 97/6/3 89/6/3 96/6/3
f 99/2/3 91/2/3 90/2/3
f 100/1/3 92/1/3 91/1/3
f 100/2/3 91/2/3 99/2/3
f 101/6/3 98/6/3 97/6/3
f 102/6/3 98/6/3 101/6/3
f 104/1/3 100/1/3 99/1/3
f 105/1/3 92/1/3 100/1/3
f 105/1/3 100/1/3 104/1/3
f 106/2/3 93/2/3 92/2/3
f 106/4/3 94/4/3 93/4/3
f 107/6/3 95/6/3 94/6/3
f 107/4/3 94/4/3 106/4/3
f 108/6/3 95/6/3 107/6/3
f 110/2/3 106/2/3 92/2/3
f 110/1/3 92/1/3 105/1/3
f 110/2/3 107/2/3 106/2/3
f 111/4/3 108/4/3 107/4/3
f 111/2/3 107/2/3 110/2/3
f 112/2/3 105/2/3 104/2/3
f 113/1/3 110/1/3 105/1/3
f 113/2/3 105/2/3 112/2/3
f 113/1/3 111/1/3 110/1/3
f 114/1/3 111/1/3 113/1/3
f 115/1/3 111/1/3 114/1/3
f 116/4/3 108/4/3 111/4/3
f 116/1/3 111/1/3 115/1/3
f 117/1/3 113/1/3 112/1/3
f 118/2/3 114/2/3 113/2/3
f 118/1/3 113/1/3 117/1/3
f 119/1/3 115/1/3 114/1/3
f 119/2/3 114/2/3 118/2/3
f 120/2/3 116/2/3 115/2/3
f 120/1/3 115/1/3 119/1/3
f 121/4/3 108/4/3 116/4/3
f 121/2/3 116/2/3 120/2/3
f 122/2/3 118/2/3 117/2/3
f 123/1/3 119/1/3 118/1/3
f 123/2/3 118/2/3 122/2/3
f 124/2/3 120/2/3 119/2/3
f 124/1/3 119/1/3 123/1/3
f 125/4/3 121/4/3 120/4/3
f 125/2/3 120/2/3 124/2/3
f 126/1/3 123/1/3 122/1/3
f 126/1/3 124/1/3 123/1/3
f 127/4/3 125/4/3 124/4/3
f 127/1/3 124/1/3 126/1/3
f 128/4/3 108/4/3 121/4/3
f 128/4/3 125/4/3 127/4/3
f 128/4/3 121/4/3 125/4/3
f 129/6/3 109/6/3 108/6/3
f 129/4/3 108/4/3 128/4/3
f 130/6/3 109/6/3 129/6/3
f 131/2/3 127/2/3 126/2/3
f 132/2/3 127/2/3 131/2/3
f 134/6/3 103/6/3 102/6/3
f 135/6/3 103/6/3 134/6/3
f 136/4/3 128/4/3 127/4/3
f 137/6/3 129/6/3 128/6/3
f 137/4/3 128/4/3 136/4/3
f 138/6/3 129/6/3 137/6/3
f 139/6/3 96/6/3 88/6/3
f 140/6/3 134/6/3 133/6/3
f 141/6/3 134/6/3 140/6/3
f 142/1/3 132/1/3 131/1/3
f 143/2/3 127/2/3 132/2/3
f 143/1/3 132/1/3 142/1/3
f 144/4/3 136/4/3 127/4/3
f 144/2/3 127/2/3 143/2/3
f 145/6/3 137/6/3 136/6/3
f 145/4/3 136/4/3 144/4/3
f 146/6/3 137/6/3 145/6/3
f 147/6/3 140/6/3 139/6/3
f 147/6/3 139/6/3 88/6/3
f 148/6/3 140/6/3 147/6/3
f 149/6/3 143/6/3 142/6/3
f 149/6/3 145/6/3 144/6/3
f 149/6/3 144/6/3 143/6/3
f 150/6/3 145/6/3 149/6/3
f 153/5/3 152/5/3 151/5/3
f 154/5/3 152/5/3 153/5/3
f 155/5/3 152/5/3 154/5/3
f 156/5/3 152/5/3 155/5/3
f 157/5/3 152/5/3 156/5/3
f 158/5/3 152/5/3 157/5/3
f 159/5/3 157/5/3 156/5/3
f 160/5/3 157/5/3 159/5/3
f 162/5/3 152/5/3 158/5/3
f 163/5/3 152/5/3 162/5/3
f 164/6/3 162/6/3 161/6/3
f 165/5/3 152/5/3 163/5/3
f 166/5/3 152/5/3 165/5/3
f 167/5/3 157/5/3 160/5/3
f 168/5/3 157/5/3 167/5/3
f 170/5/3 157/5/3 168/5/3
f 171/6/3 164/6/3 161/6/3
f 171/6/3 165/6/3 164/6/3
f 172/6/3 165/6/3 171/6/3
f 173/5/3 152/5/3 166/5/3
f 175/5/3 170/5/3 169/5/3
f 176/6/3 171/6/3 161/6/3
f 177/6/3 171/6/3 176/6/3
f 178/5/3 173/5/3 172/5/3
f 180/5/3 175/5/3 174/5/3
f 181/5/3 157/5/3 170/5/3
f 181/5/3 170/5/3 175/5/3
f 181/5/3 175/5/3 180/5/3
f 182/5/3 178/5/3 177/5/3
f 184/5/3 181/5/3 180/5/3
f 184/5/3 182/5/3 181/5/3
f 184/5/3 180/5/3 179/5/3
f 185/5/3 184/5/3 183/5/3
f 186/5/3 178/5/3 182/5/3
f 186/5/3 184/5/3 185/5/3
f 186/5/3 152/5/3 173/5/3
f 186/5/3 182/5/3 184/5/3
f 186/5/3 173/5/3 178/5/3
f 187/5/4 188/5/4 189/5/4
f 189/5/4 188/5/4 190/5/4
f 204/6/5 192/6/5 191/6/5
f 205/4/5 193/4/5 192/4/5
f 205/6/5 192/6/5 204/6/5
f 206/2/5 194/2/5 193/2/5
f 206/4/5 193/4/5 205/4/5
f 207/1/5 195/1/5 194/1/5
f 207/2/5 194/2/5 206/2/5
f 208/2/5 196/2/5 195/2/5
f 208/1/5 195/1/5 207/1/5
f 209/1/5 197/1/5 196/1/5
f 209/2/5 196/2/5 208/2/5
f 210/2/5 198/2/5 197/2/5
f 210/1/5 197/1/5 209/1/5
f 211/1/5 199/1/5 198/1/5
f 211/2/5 198/2/5 210/2/5
f 212/2/5 200/2/5 199/2/5
f 212/1/5 199/1/5 211/1/5
f 213/1/5 201/1/5 200/1/5
f 213/2/5 200/2/5 212/2/5
f 214/6/5 202/6/5 201/6/5
f 214/1/5 201/1/5 213/1/5
f 215/6/5 202/6/5 214/6/5
f 217/5/5 204/5/5 203/5/5
f 218/4/5 213/4/5 212/4/5
f 218/5/5 204/5/5 217/5/5
f 218/4/5 205/4/5 204/4/5
f 218/4/5 215/4/5 214/4/5
f 218/4/5 214/4/5 213/4/5
f 218/4/5 206/4/5 205/4/5
f 218/4/5 212/4/5 211/4/5
f 218/4/5 211/4/5 210/4/5
f 218/4/5 210/4/5 209/4/5
f 218/4/5 209/4/5 208/4/5
f 218/4/5 208/4/5 207/4/5
f 218/4/5 207/4/5 206/4/5
f 219/5/5 216/5/5 215/5/5
f 219/4/5 215/4/5 218/4/5
f 220/5/5 216/5/5 219/5/5
f 221/4/5 218/4/5 217/4/5
f 221/4/5 219/4/5 218/4/5
f 221/4/5 220/4/5 219/4/5
f 222/4/5 220/4/5 221/4/5
f 223/4/5 221/4/5 217/4/5
f 223/3/5 222/3/5 221/3/5
f 224/4/5 220/4/5 222/4/5
f 224/3/5 222/3/5 223/3/5
f 225/5/5 217/5/5 203/5/5
f 225/4/5 223/4/5 217/4/5
f 225/4/5 224/4/5 223/4/5
f 226/4/5 220/4/5 224/4/5
f 226/4/5 224/4/5 225/4/5
f 226/5/5 216/5/5 220/5/5
f 227/5/5 225/5/5 203/5/5
f 227/5/5 226/5/5 225/5/5
f 228/5/5 216/5/5 226/5/5
f 228/5/5 226/5/5 227/5/5
f 231/6/5 230/6/5 229/6/5
f 232/6/5 230/6/5 231/6/5
f 237/6/5 234/6/5 233/6/5
f 238/6/5 234/6/5 237/6/5
f 239/6/5 236/6/5 235/6/5
f 240/6/5 236/6/5 239/6/5
f 243/6/5 242/6/5 241/6/5
f 244/6/5 242/6/5 243/6/5
f 245/6/6 246/6/6 249/6/6
f 249/6/6 246/6/6 250/6/6
f 247/6/6 248/6/6 251/6/6
f 251/6/6 248/6/6 252/6/6
f 253/6/6 254/6/6 257/6/6
f 257/6/6 254/6/6 258/6/6
f 255/6/6 256/6/6 259/6/6
f 259/6/6 256/6/6 260/6/6
f 261/6/6 262/6/6 265/6/6
f 265/6/6 262/6/6 266/6/6
f 263/6/6 264/6/6 267/6/6
f 267/6/6 264/6/6 268/6/6
f 269/6/6 270/6/6 271/6/6
f 271/6/6 270/6/6 272/6/6
f 273/6/6 274/6/6 275/6/6
f 275/6/6 274/6/6 276/6/6
f 277/6/6 278/6/6 281/6/6
f 281/6/6 278/6/6 282/6/6
f 279/6/6 280/6/6 283/6/6
f 283/6/6 280/6/6 284/6/6
f 285/6/6 286/6/6 289/6/6
f 289/6/6 286/6/6 290/6/6
f 287/6/6 288/6/6 291/6/6
f 291/6/6 288/6/6 292/6/6
f 293/6/6 294/6/6 295/6/6
f 295/6/6 294/6/6 296/6/6
f 297/5/6 298/5/6 299/5/6
f 299/5/6 298/5/6 300/5/6
